<svg xmlns="http://www.w3.org/2000/svg" width="38" height="40" viewBox="0 0 38 40">
    <g fill="none" fill-rule="nonzero">
        <path fill="#2B2727" d="M3.471 20.949A4.082 4.082 0 0 0 6.185 23.6a2.062 2.062 0 0 1 1.455 1.978 4.052 4.052 0 0 0 1.195 2.932 4.249 4.249 0 0 0 4.29 1.009 2.12 2.12 0 0 1 2.376.755 4.181 4.181 0 0 0 3.39 1.722 4.185 4.185 0 0 0 3.391-1.722 2.123 2.123 0 0 1 2.356-.753 4.25 4.25 0 0 0 4.29-1.009 4.052 4.052 0 0 0 1.195-2.932 2.062 2.062 0 0 1 1.455-1.978 4.148 4.148 0 0 0 2.7-2.658 4.074 4.074 0 0 0-.616-3.718 2.041 2.041 0 0 1 0-2.445 4.073 4.073 0 0 0 .617-3.718 4.14 4.14 0 0 0-2.701-2.658 2.06 2.06 0 0 1-1.455-1.982A4.046 4.046 0 0 0 28.93 3.5a4.248 4.248 0 0 0-4.288-1.013 2.12 2.12 0 0 1-2.356-.76A4.184 4.184 0 0 0 18.893 0a4.125 4.125 0 0 0-3.392 1.729 2.12 2.12 0 0 1-2.356.757 4.248 4.248 0 0 0-4.288 1.015 4.052 4.052 0 0 0-1.196 2.933 2.062 2.062 0 0 1-1.454 1.982 4.147 4.147 0 0 0-2.701 2.658 4.074 4.074 0 0 0 .617 3.718c.542.727.542 1.72 0 2.445a4.018 4.018 0 0 0-.652 3.712zm2.293-7.414c-.843-1.136-.31-2.753 1.046-3.18a4.087 4.087 0 0 0 2.918-3.966 2.01 2.01 0 0 1 .597-1.459 2.103 2.103 0 0 1 2.143-.506c.427.141.877.214 1.328.214a4.184 4.184 0 0 0 3.393-1.729 2.098 2.098 0 0 1 3.384 0 4.197 4.197 0 0 0 4.723 1.517 2.102 2.102 0 0 1 2.142.506c.39.384.608.908.603 1.452a4.087 4.087 0 0 0 2.918 3.967c1.357.429 1.889 2.044 1.047 3.18a4.043 4.043 0 0 0 0 4.905c.85 1.135.316 2.761-1.047 3.188a4.087 4.087 0 0 0-2.918 3.967 2.01 2.01 0 0 1-.596 1.458 2.103 2.103 0 0 1-2.143.507 4.194 4.194 0 0 0-4.722 1.516 2.098 2.098 0 0 1-3.384 0 4.195 4.195 0 0 0-4.722-1.516 2.102 2.102 0 0 1-2.142-.507 2.02 2.02 0 0 1-.597-1.458 4.088 4.088 0 0 0-2.918-3.967c-1.357-.429-1.889-2.045-1.046-3.18a4.048 4.048 0 0 0 .01-4.892l-.017-.017zM.345 34.998a1.986 1.986 0 0 1-.026-2.2l3.665-5.766a1.05 1.05 0 0 1 1.456-.354c.5.31.638.968.307 1.45L2.134 33.85l3.295-.528a1.962 1.962 0 0 1 2.21 1.358l.943 3.166 3.688-5.792a1.05 1.05 0 0 1 1.494-.407c.52.33.638 1.032.254 1.51l-3.728 5.848c-.37.59-1.022.948-1.726.948a2.139 2.139 0 0 1-.29 0 2.023 2.023 0 0 1-1.668-1.437l-.929-3.126-3.256.524a2.041 2.041 0 0 1-2.063-.9l-.013-.016zM33.79 27.06l3.664 5.766c.953 1.485-.33 3.384-2.084 3.081l-3.256-.523-.912 3.127a2.02 2.02 0 0 1-1.667 1.438 2.139 2.139 0 0 1-.29 0A2.03 2.03 0 0 1 27.517 39l-3.75-5.844a1.022 1.022 0 0 1 .307-1.45 1.049 1.049 0 0 1 1.457.354l3.688 5.792.927-3.173a1.958 1.958 0 0 1 2.189-1.36l3.297.532-3.625-5.692a1.021 1.021 0 0 1 .305-1.45 1.049 1.049 0 0 1 1.458.354l.02-.004z"/>
        <path fill="#FF700A" d="M14.725 13.197c-.002-1.832 1.313-3.406 3.135-3.752v-.823c0-1.373 2.084-1.373 2.084 0v.856a4.169 4.169 0 0 1 2.473 1.763c.33.479.195 1.13-.295 1.446a1.05 1.05 0 0 1-1.455-.33 2.092 2.092 0 0 0-1.774-.972c-1.009 0-2.084.569-2.084 1.812 0 .327 0 1.314 2.326 1.837h.036c3.391.791 3.89 2.744 3.89 3.842.003 1.832-1.313 3.407-3.135 3.752v.824c0 1.373-2.084 1.373-2.084 0v-.865a4.148 4.148 0 0 1-2.813-2.394c-.538-1.265 1.383-2.066 1.921-.798a2.08 2.08 0 0 0 1.943 1.294c1.01 0 2.084-.569 2.084-1.813 0-.326 0-1.31-2.325-1.836h-.037c-3.39-.77-3.89-2.749-3.89-3.843z"/>
    </g>
</svg>
